<?xml version="1.0" standalone="no"?>
<!DOCTYPE svg PUBLIC "-//W3C//DTD SVG 20010904//EN"
 "http://www.w3.org/TR/2001/REC-SVG-20010904/DTD/svg10.dtd">
<svg version="1.0" xmlns="http://www.w3.org/2000/svg"
 width="1043.000000pt" height="831.000000pt" viewBox="0 0 1043.000000 831.000000"
 preserveAspectRatio="xMidYMid meet">

<g transform="translate(0.000000,831.000000) scale(0.100000,-0.100000)"
fill="#000000" stroke="none">
<path d="M4090 7550 c-41 -12 -112 -38 -158 -60 -212 -101 -318 -221 -391
-442 -13 -38 -26 -68 -30 -68 -9 0 -77 57 -171 145 -75 69 -122 95 -174 95
-73 0 -110 -77 -67 -138 10 -15 22 -37 25 -50 4 -12 24 -31 44 -41 20 -11 89
-63 152 -116 122 -103 135 -112 184 -126 47 -14 92 -1 135 40 39 36 56 73 101
216 51 164 174 280 365 342 67 21 100 26 200 26 141 1 200 -11 312 -64 86 -41
174 -119 236 -209 44 -64 116 -138 151 -155 68 -34 122 -31 267 18 213 73 267
82 474 82 154 0 193 -4 269 -23 216 -55 341 -161 393 -334 47 -161 107 -213
293 -258 162 -39 251 -70 372 -131 314 -157 429 -260 533 -474 57 -118 76
-191 82 -305 8 -171 -19 -258 -129 -403 -71 -95 -88 -134 -88 -199 0 -68 18
-103 90 -178 77 -80 137 -171 177 -270 41 -99 53 -162 53 -269 0 -234 -75
-438 -252 -688 -75 -106 -236 -269 -297 -301 -24 -12 -87 -29 -140 -38 -118
-19 -176 -49 -236 -122 -61 -73 -90 -168 -82 -260 l7 -66 -59 -57 c-54 -53
-62 -57 -129 -69 -111 -18 -168 -71 -258 -239 -48 -91 -124 -141 -212 -141
-39 0 -97 50 -107 93 -9 34 37 192 78 271 18 33 37 81 42 106 10 44 12 46 92
85 95 46 161 98 219 169 112 140 183 313 184 446 0 211 -158 392 -356 408 -36
2 -66 8 -69 11 -2 4 3 40 11 81 27 138 36 242 23 272 -19 47 -88 52 -121 8
-10 -14 -34 -89 -54 -165 -51 -207 -95 -291 -208 -398 -72 -68 -126 -92 -208
-92 -57 0 -70 4 -92 24 -14 14 -26 29 -26 34 0 5 -11 37 -26 72 -26 67 -25 83
12 119 9 9 31 59 49 112 18 53 53 128 76 167 164 275 168 338 30 481 -88 90
-110 138 -111 231 0 84 19 162 60 250 16 35 30 78 30 96 0 59 -47 109 -103
109 -12 0 -76 -18 -142 -40 -203 -68 -295 -84 -490 -83 -198 1 -260 13 -433
89 -141 62 -192 64 -377 11 -235 -68 -391 -83 -525 -51 -118 27 -205 100 -261
217 -34 72 -38 150 -14 244 18 69 12 106 -22 133 -35 27 -57 25 -93 -7 -52
-48 -73 -127 -68 -268 3 -111 6 -125 36 -188 97 -207 275 -319 527 -334 115
-7 227 9 413 59 217 57 205 57 313 8 171 -77 271 -100 464 -107 145 -5 268 8
423 44 83 19 99 13 82 -32 -18 -47 -23 -168 -11 -240 17 -97 53 -167 127 -245
42 -44 64 -76 64 -91 0 -13 -29 -74 -65 -134 -36 -61 -78 -144 -95 -185 -36
-89 -80 -261 -80 -309 0 -19 -5 -60 -12 -91 -15 -75 1 -135 52 -193 70 -79
161 -111 306 -105 91 3 107 6 170 38 46 23 99 64 160 122 83 78 96 87 140 93
27 3 57 8 66 9 40 8 107 -16 142 -51 74 -75 75 -162 1 -311 -35 -70 -64 -112
-105 -152 -100 -98 -204 -136 -261 -96 -36 25 -76 20 -110 -13 -49 -49 -33
-119 40 -178 l23 -19 -50 -134 c-28 -74 -70 -193 -93 -265 -75 -234 -146 -448
-183 -550 -19 -55 -42 -129 -50 -164 -15 -63 -18 -68 -143 -194 -70 -71 -166
-161 -213 -200 -124 -104 -242 -212 -455 -418 -123 -118 -203 -186 -239 -205
-51 -25 -208 -42 -451 -49 -126 -3 -279 -10 -339 -16 -159 -14 -267 -58 -251
-101 11 -29 123 -68 225 -78 217 -22 691 -8 816 25 119 31 153 57 479 371 225
216 354 330 435 382 65 42 101 75 229 205 122 124 143 164 152 282 5 70 18
126 59 250 29 88 57 164 62 170 5 6 15 5 26 -3 58 -43 103 -54 200 -50 85 3
106 7 170 37 87 41 166 120 213 213 33 64 72 108 98 108 24 0 147 65 194 102
102 80 189 207 227 330 34 112 36 115 72 123 227 47 416 197 620 495 170 246
245 450 264 710 18 258 -83 543 -261 734 -25 26 -45 56 -45 65 1 9 23 45 50
81 108 142 151 274 153 465 1 153 -23 255 -98 411 -124 263 -243 380 -555 551
-181 99 -290 143 -455 183 -71 17 -139 38 -151 45 -12 8 -32 45 -48 92 -36
102 -76 170 -139 240 -169 185 -479 278 -834 252 -167 -12 -210 -22 -409 -86
-61 -20 -118 -34 -126 -30 -9 3 -51 49 -93 102 -131 162 -253 250 -430 306
-59 19 -98 23 -240 26 -146 2 -181 0 -245 -17z"/>
<path d="M4027 4540 c-34 -27 -45 -68 -45 -160 0 -98 -9 -142 -98 -458 -85
-303 -124 -462 -201 -802 -30 -135 -61 -272 -69 -305 -18 -80 -17 -129 2 -168
43 -85 78 -98 258 -98 76 1 155 3 175 6 20 3 141 12 269 20 128 8 240 19 250
24 38 21 73 69 74 102 1 26 -6 39 -36 65 -20 18 -52 35 -69 38 -34 6 -266 -5
-525 -25 -78 -6 -150 -8 -159 -5 -10 4 -13 13 -9 29 3 12 35 153 71 312 65
292 136 580 175 710 94 317 128 532 99 640 -22 81 -105 120 -162 75z"/>
<path d="M3306 4420 c-33 -39 -34 -50 -40 -340 -5 -227 -4 -248 13 -276 10
-17 33 -37 51 -44 27 -11 36 -11 65 3 60 29 65 50 72 320 3 133 3 260 -1 281
-16 84 -109 116 -160 56z"/>
<path d="M4901 4424 c-23 -19 -37 -46 -56 -107 -32 -107 -85 -325 -85 -349 0
-34 30 -85 56 -97 68 -31 132 16 153 115 7 32 28 121 47 197 43 177 44 207 3
241 -39 33 -79 33 -118 0z"/>
<path d="M4847 2625 c-71 -27 -98 -91 -61 -144 16 -22 20 -23 103 -16 l87 7
53 -44 c147 -120 137 -114 161 -98 11 7 15 28 15 77 0 56 -4 74 -25 103 -30
43 -53 65 -105 98 -50 32 -167 41 -228 17z"/>
<path d="M5013 2300 c-50 -12 -78 -34 -146 -118 -91 -112 -243 -263 -312 -309
-199 -132 -492 -216 -804 -230 -152 -6 -154 -7 -187 -36 -48 -41 -47 -86 1
-134 l35 -35 188 5 c181 4 269 17 462 65 180 46 404 156 520 257 108 94 257
270 302 359 25 48 27 109 7 150 -16 34 -23 37 -66 26z"/>
</g>
</svg>
