<?xml version="1.0" standalone="no"?>
<!DOCTYPE svg PUBLIC "-//W3C//DTD SVG 20010904//EN"
 "http://www.w3.org/TR/2001/REC-SVG-20010904/DTD/svg10.dtd">
<svg version="1.0" xmlns="http://www.w3.org/2000/svg"
 width="1600.000000pt" height="1336.000000pt" viewBox="0 0 1600.000000 1336.000000"
 preserveAspectRatio="xMidYMid meet">

<g transform="translate(0.000000,1336.000000) scale(0.100000,-0.100000)"
fill="#000000" stroke="none">
<path d="M7380 11645 c-286 -57 -517 -256 -586 -504 -10 -35 -24 -65 -31 -68
-13 -5 -99 63 -187 149 -53 52 -118 88 -158 88 -39 0 -88 -45 -88 -81 0 -46
56 -137 99 -158 20 -11 83 -60 141 -110 58 -50 123 -100 146 -111 110 -55 199
4 248 166 61 202 134 298 285 373 115 57 158 66 316 66 158 0 205 -10 309 -64
86 -44 154 -107 249 -231 58 -77 83 -100 126 -122 76 -39 122 -36 266 13 161
54 277 78 415 85 308 17 580 -79 673 -239 14 -23 39 -82 56 -132 60 -171 95
-199 321 -256 182 -46 251 -73 408 -157 263 -142 353 -224 449 -408 67 -130
93 -217 100 -334 9 -163 -20 -258 -120 -394 -74 -99 -96 -148 -97 -209 0 -69
21 -109 102 -197 185 -197 250 -422 203 -694 -28 -162 -79 -279 -204 -466 -91
-138 -235 -291 -320 -341 -49 -29 -78 -39 -146 -47 -111 -15 -161 -38 -224
-103 -72 -76 -95 -139 -96 -258 l0 -94 -43 -44 c-53 -53 -82 -68 -147 -78 -27
-4 -61 -13 -75 -20 -44 -23 -116 -107 -160 -185 -23 -41 -54 -88 -68 -104 -35
-37 -102 -67 -154 -68 -36 0 -47 5 -80 40 -21 24 -38 51 -38 65 0 43 51 201
85 262 18 33 36 79 40 102 8 48 13 53 77 77 130 48 264 187 348 360 84 173 90
329 19 468 -53 103 -190 195 -309 205 -33 3 -63 9 -65 13 -2 4 5 54 15 110 29
145 30 232 6 259 -31 34 -93 24 -116 -19 -6 -11 -26 -82 -45 -158 -40 -158
-83 -253 -152 -337 -89 -109 -169 -155 -269 -155 -77 0 -93 14 -132 112 l-34
86 31 44 c17 24 40 72 51 108 11 36 43 108 72 160 129 239 138 260 138 311 0
66 -24 111 -104 192 -85 86 -99 114 -104 212 -5 92 12 169 58 269 37 80 39
124 5 164 -41 48 -69 49 -208 3 -212 -70 -328 -91 -497 -91 -185 0 -264 18
-448 97 -134 58 -178 59 -357 9 -198 -55 -271 -68 -375 -69 -210 -3 -343 70
-422 231 -30 63 -35 160 -13 251 15 62 15 72 1 99 -25 48 -78 57 -121 20 -43
-39 -65 -122 -65 -247 0 -119 17 -183 68 -266 110 -177 266 -262 503 -272 136
-7 240 9 434 63 72 20 148 36 170 36 26 1 72 -13 130 -40 191 -85 310 -107
548 -99 120 4 193 12 281 31 65 14 122 24 126 21 4 -2 1 -32 -6 -67 -38 -182
2 -334 126 -470 33 -36 60 -75 60 -86 0 -11 -30 -71 -66 -132 -104 -176 -154
-318 -175 -490 -4 -41 -11 -96 -15 -122 -12 -89 39 -175 133 -226 120 -63 281
-64 406 0 39 19 93 61 147 114 91 89 122 103 222 104 81 0 132 -30 169 -102
26 -50 24 -114 -5 -192 -51 -136 -152 -258 -250 -304 -72 -35 -92 -36 -146
-13 -58 25 -91 20 -120 -16 -37 -48 -19 -119 42 -166 l32 -26 -37 -93 c-53
-136 -338 -995 -351 -1059 -7 -34 -235 -264 -386 -391 -63 -52 -207 -183 -320
-290 -254 -242 -295 -277 -345 -299 -61 -27 -172 -38 -487 -49 -158 -5 -320
-15 -360 -20 -90 -13 -183 -56 -183 -85 0 -30 93 -71 195 -86 110 -16 573 -16
705 0 123 15 216 41 275 79 45 28 153 128 425 392 159 154 283 260 369 315 32
20 116 95 186 167 156 158 181 202 184 323 2 66 12 107 55 240 29 88 56 163
60 168 4 4 32 -6 62 -22 30 -16 78 -32 109 -36 70 -8 184 15 251 51 61 34 156
133 187 197 34 68 67 104 110 118 132 42 273 156 344 278 35 60 80 173 92 233
5 24 16 30 93 53 108 33 179 69 260 129 216 163 471 547 538 812 30 116 49
305 40 394 -20 210 -136 469 -265 595 -22 21 -40 47 -40 58 0 10 20 44 44 76
98 127 137 226 156 394 40 346 -173 755 -496 953 -247 152 -406 222 -622 274
-148 36 -158 43 -188 133 -79 246 -280 408 -584 474 -67 14 -127 18 -285 17
-225 0 -307 -14 -505 -80 -69 -24 -116 -34 -131 -30 -13 3 -51 40 -83 81 -167
211 -290 292 -519 340 -83 18 -277 18 -367 0z"/>
<path d="M7289 8635 c-38 -20 -51 -60 -55 -158 -3 -112 -12 -153 -91 -432 -75
-268 -147 -553 -198 -785 -20 -91 -50 -223 -66 -295 -35 -148 -35 -206 2 -259
28 -42 77 -66 144 -73 27 -3 160 2 295 11 135 9 288 19 340 22 124 8 160 18
198 54 26 24 32 38 32 70 0 35 -5 43 -42 70 -38 28 -47 30 -132 30 -50 0 -204
-7 -343 -16 -138 -9 -259 -14 -268 -10 -10 4 -14 13 -11 24 4 10 31 133 61
273 60 272 138 591 185 754 131 454 143 667 40 720 -35 18 -57 18 -91 0z"/>
<path d="M6567 8520 c-14 -11 -30 -35 -35 -53 -6 -17 -13 -146 -16 -285 -5
-217 -4 -259 9 -287 24 -49 97 -72 136 -42 44 33 49 66 56 335 5 227 4 261
-10 289 -33 63 -92 81 -140 43z"/>
<path d="M8174 8530 c-38 -15 -61 -58 -92 -170 -51 -184 -76 -304 -68 -334 11
-44 49 -76 92 -76 54 0 96 47 113 125 7 33 28 122 47 198 47 190 45 221 -16
252 -32 17 -45 18 -76 5z"/>
<path d="M8107 6715 c-59 -20 -87 -52 -87 -95 0 -40 22 -68 56 -72 10 -1 44 1
75 6 68 10 78 5 176 -80 40 -35 82 -64 93 -64 43 0 54 94 19 167 -57 118 -211
182 -332 138z"/>
<path d="M8240 6383 c-35 -13 -74 -49 -127 -116 -95 -120 -243 -265 -324 -317
-194 -124 -487 -206 -781 -218 -167 -7 -167 -7 -198 -37 -32 -31 -40 -77 -20
-116 28 -51 152 -70 343 -50 397 40 726 170 944 374 72 67 197 222 232 286 33
63 41 129 19 176 -9 19 -18 25 -42 24 -17 0 -38 -3 -46 -6z"/>
<path d="M3203 3656 c-133 -33 -268 -138 -335 -262 -108 -201 -111 -459 -9
-662 45 -88 105 -157 187 -211 81 -55 138 -76 252 -93 167 -25 352 46 452 172
41 52 30 67 -16 23 -118 -111 -322 -133 -491 -52 -83 40 -201 151 -254 239
-149 252 -140 568 22 714 68 61 142 88 244 89 214 1 402 -126 484 -329 l20
-49 0 148 c1 142 0 150 -21 169 -38 32 -165 88 -236 104 -81 17 -228 17 -299
0z"/>
<path d="M4076 3613 l24 -46 0 -522 0 -522 -25 -49 c-14 -27 -25 -50 -25 -51
0 -2 61 -3 135 -3 74 0 135 2 135 4 0 3 -10 22 -22 43 -22 36 -23 49 -26 296
l-3 257 230 0 231 0 0 -248 c0 -245 0 -249 -25 -298 -14 -27 -25 -50 -25 -51
0 -2 61 -3 135 -3 74 0 135 2 135 4 0 3 -10 22 -22 43 l-23 38 0 540 c0 540 0
540 22 578 l22 37 -133 0 -133 0 23 -47 c23 -45 24 -53 24 -300 l0 -253 -231
0 -230 0 3 258 c3 239 5 260 24 300 l21 42 -132 0 -132 0 23 -47z"/>
<path d="M5551 3648 c9 -7 26 -28 38 -46 l22 -32 -116 -358 c-181 -557 -227
-672 -295 -746 l-43 -46 148 0 147 0 -25 29 c-52 62 -59 203 -19 351 l17 65
205 3 205 2 53 -167 c55 -177 62 -224 36 -261 l-15 -22 147 0 148 0 -26 28
c-14 15 -34 43 -44 62 -10 19 -95 285 -190 590 l-171 555 -119 3 c-98 2 -116
0 -103 -10z m179 -445 c49 -155 90 -286 90 -292 0 -8 -61 -11 -190 -11 -104 0
-190 2 -190 4 0 1 4 16 9 32 9 27 167 513 177 543 2 8 6 12 9 9 2 -2 45 -131
95 -285z"/>
<path d="M6436 3613 l24 -46 0 -522 0 -522 -25 -49 c-14 -27 -25 -50 -25 -51
0 -2 179 -3 399 -3 l399 0 6 68 c4 37 9 94 12 127 l5 60 -30 -51 c-38 -66
-100 -118 -168 -144 -46 -17 -78 -20 -229 -20 l-174 0 2 558 c3 545 3 558 24
600 l21 42 -132 0 -132 0 23 -47z"/>
<path d="M7506 3603 c-3 -32 -8 -89 -11 -128 l-6 -70 20 40 c34 67 76 110 143
145 62 34 65 35 211 38 l147 4 0 -32 c0 -27 -122 -279 -232 -480 -14 -25 -60
-112 -103 -195 -43 -82 -118 -226 -167 -319 -48 -93 -88 -173 -88 -177 0 -5
188 -9 419 -9 l419 0 6 53 c3 28 8 88 12 132 l6 80 -27 -52 c-29 -58 -83 -111
-147 -145 -40 -21 -57 -23 -245 -26 l-203 -3 0 26 c0 15 52 129 116 253 64
125 170 333 236 462 66 129 147 286 180 348 l59 112 -370 0 -369 0 -6 -57z"/>
<path d="M9452 3615 l31 -44 -117 -363 c-181 -556 -235 -691 -303 -755 l-34
-33 146 0 146 0 -26 34 c-48 63 -52 239 -9 368 l16 48 203 0 203 0 11 -32 c84
-270 93 -302 89 -341 -3 -23 -8 -50 -12 -59 -8 -17 2 -18 133 -18 l141 0 -35
46 c-39 51 -46 71 -256 756 l-134 438 -112 0 -113 0 32 -45z m152 -420 c47
-148 86 -275 86 -282 0 -10 -42 -13 -191 -13 -149 0 -190 3 -186 13 2 6 46
140 97 296 59 183 95 280 100 270 4 -8 47 -135 94 -284z"/>
<path d="M10292 3643 c42 -50 43 -66 43 -603 l0 -516 -27 -52 -27 -52 139 0
139 0 -27 48 c-27 47 -27 48 -27 257 l0 210 111 3 c81 2 114 -1 121 -10 6 -7
57 -105 113 -217 81 -160 103 -214 104 -248 l1 -43 144 0 144 0 -51 50 c-28
28 -69 81 -90 118 -62 107 -192 358 -192 371 0 6 6 11 14 11 25 0 111 52 154
93 24 23 55 67 69 97 36 74 39 200 6 272 -45 97 -137 173 -254 209 -53 17 -95
19 -341 19 -267 0 -280 -1 -266 -17z m520 -23 c63 -18 120 -69 157 -143 67
-131 50 -309 -40 -410 -22 -26 -45 -47 -49 -47 -5 0 -21 24 -37 53 l-28 52
-104 3 -103 3 33 -40 c19 -22 44 -58 57 -80 l23 -41 -111 0 -110 0 0 330 0
330 138 0 c75 0 154 -5 174 -10z"/>
<path d="M11446 3583 c-4 -43 -9 -100 -12 -128 l-5 -50 22 40 c39 72 77 111
141 145 56 30 72 34 165 38 l103 5 -2 -571 -3 -570 -22 -31 c-13 -16 -23 -33
-23 -36 0 -3 64 -5 142 -5 133 0 140 1 126 18 -43 51 -43 51 -46 636 l-3 558
103 -4 c151 -6 227 -46 299 -157 l29 -45 0 35 c0 18 -3 71 -7 117 l-6 82 -497
0 -497 0 -7 -77z"/>
</g>
</svg>
